<svg width="314" height="72" viewBox="0 0 314 72" fill="none" xmlns="http://www.w3.org/2000/svg">
<path fill-rule="evenodd" clip-rule="evenodd" d="M49.4908 0.136368H16.1454C14.6022 0.136368 13.154 0.728072 12.0619 1.81701L2.47013 11.3798C1.37809 12.4688 0.784424 13.9125 0.784424 15.4511V66.2243C0.784424 69.408 3.38423 71.9998 6.57733 71.9998H49.5025C52.6958 71.9998 55.2954 69.4078 55.2954 66.2243V5.91189C55.26 2.72837 52.6602 0.136368 49.4908 0.136368ZM12.5722 6.95341V11.9005H7.61024L12.5722 6.95341ZM51.2595 21.5227H43.8046C42.7006 21.5227 41.7984 22.4104 41.7984 23.5228C41.7984 24.6234 42.6887 25.5229 43.8046 25.5229H51.2595V29.0735H48.5291C47.4252 29.0735 46.523 29.961 46.523 31.0736C46.523 32.1742 47.4134 33.0737 48.5291 33.0737H51.2595V66.236C51.2595 67.2184 50.4642 68.0113 49.4908 68.0113H6.54189C5.56848 68.0113 4.77319 67.2184 4.77319 66.2479V15.889H14.5785C15.6825 15.889 16.5847 15.0015 16.5847 13.8889V4.11298H49.4908C50.4642 4.11298 51.2595 4.90588 51.2595 5.87637V21.5227ZM28.0162 8.5275C23.2678 8.5275 19.3861 12.3858 19.3861 17.1317C19.3861 21.8659 23.2678 25.7241 28.0162 25.7241C32.7647 25.7241 36.6464 21.8657 36.6464 17.1198C36.6464 12.3739 32.7647 8.5275 28.0162 8.5275ZM28.0162 21.7121C25.4877 21.7121 23.4103 19.641 23.4103 17.12C23.4103 14.5991 25.4757 12.5279 28.0162 12.5279C30.5567 12.5279 32.6222 14.5991 32.6222 17.12C32.6222 19.6408 30.5448 21.7121 28.0162 21.7121ZM10.3406 50.8504H45.6921C46.808 50.8504 47.6982 51.7382 47.7101 52.8506C47.7101 53.9629 46.808 54.8507 45.704 54.8507H10.3406C9.22488 54.8507 8.33447 53.9512 8.33447 52.8506C8.33447 51.738 9.23663 50.8504 10.3406 50.8504ZM10.3406 59.6086H45.6921C46.808 59.6086 47.6982 60.4962 47.7101 61.6088C47.7101 62.7211 46.808 63.6089 45.704 63.6089H10.3406C9.22488 63.6089 8.33447 62.7094 8.33447 61.6088C8.33447 60.4962 9.23663 59.6086 10.3406 59.6086ZM16.5847 30.0441C23.9089 27.2037 32.1473 27.2037 39.4717 30.0441C41.8697 30.9791 43.4722 33.358 43.4722 35.9736V44.0925C43.4722 45.2051 42.57 46.0926 41.4661 46.0926H14.5785C13.4746 46.0926 12.5722 45.1932 12.5842 44.0925V35.9736C12.5842 33.358 14.1867 30.9791 16.5847 30.0441ZM16.5847 42.1041H39.4717H39.4719V35.9853C39.4719 35.0031 38.8901 34.1273 38.0236 33.784C31.6251 31.3105 24.4313 31.3105 18.0329 33.784C17.1664 34.1154 16.5847 35.0149 16.5847 35.9853V42.1041ZM91.8957 31.1151C91.569 28.8518 91.4407 26.8918 91.5107 25.2351C90.0407 25.3051 86.879 25.3401 82.0257 25.3401C77.1724 25.3401 74.0107 25.3051 72.5407 25.2351C72.5407 26.9151 72.319 28.8868 71.8757 31.1501C72.3424 31.3835 73.0774 31.5001 74.0807 31.5001C74.314 30.4735 74.5707 29.6685 74.8507 29.0851C75.1307 28.4785 75.5507 28.0118 76.1107 27.6851C76.694 27.3585 77.4874 27.1951 78.4907 27.1951H79.7857V43.9601C79.7857 44.8468 79.6924 45.5118 79.5057 45.9551C79.3423 46.3985 79.0507 46.7135 78.6307 46.9001C78.2107 47.0868 77.5807 47.2035 76.7407 47.2501C76.5773 47.6701 76.4957 48.2885 76.4957 49.1051C77.8723 49.0351 79.7273 49.0001 82.0607 49.0001C84.0673 49.0001 85.8057 49.0351 87.2757 49.1051C87.2757 48.2885 87.194 47.6701 87.0307 47.2501C86.1907 47.2035 85.5723 47.0868 85.1757 46.9001C84.779 46.7135 84.499 46.3985 84.3357 45.9551C84.1957 45.5118 84.1257 44.8468 84.1257 43.9601L84.1257 27.1951L85.6657 27.1951C86.949 27.1951 87.894 27.5451 88.5007 28.2451C89.1307 28.9451 89.504 30.0301 89.6207 31.5001C90.484 31.5235 91.2423 31.3951 91.8957 31.1151ZM111.113 40.8451C110.063 40.0751 108.581 39.6318 106.668 39.5151C108.115 39.3285 109.246 38.8618 110.063 38.1151C110.88 37.3685 111.288 36.4468 111.288 35.3501C111.288 32.7368 108.756 31.4301 103.693 31.4301C102.76 31.4301 101.978 31.4418 101.348 31.4651L98.4431 31.5001C97.3231 31.5001 96.2498 31.4768 95.2231 31.4301C95.2231 32.2235 95.2698 32.8535 95.3631 33.3201C95.9698 33.3901 96.4131 33.4951 96.6931 33.6351C96.9965 33.7751 97.2065 34.0318 97.3231 34.4051C97.4398 34.7551 97.4981 35.3035 97.4981 36.0501V44.3451C97.4981 45.1151 97.4281 45.6985 97.2881 46.0951C97.1715 46.4685 96.9615 46.7368 96.6581 46.9001C96.3781 47.0401 95.9581 47.1335 95.3981 47.1801C95.2581 47.5535 95.1881 48.1835 95.1881 49.0701C98.1281 49.0235 101.185 49.0001 104.358 49.0001C107.181 49.0001 109.27 48.5685 110.623 47.7051C112 46.8185 112.688 45.5935 112.688 44.0301C112.688 42.6535 112.163 41.5918 111.113 40.8451ZM103.063 33.3201C105.653 33.3201 106.948 34.2768 106.948 36.1901C106.948 37.1001 106.621 37.8001 105.968 38.2901C105.315 38.7568 104.23 38.9901 102.713 38.9901H101.698V33.4601C102.141 33.3668 102.596 33.3201 103.063 33.3201ZM107.018 46.4451C106.365 46.9351 105.385 47.1801 104.078 47.1801C103.191 47.1801 102.573 47.0051 102.223 46.6551C101.873 46.3051 101.698 45.5935 101.698 44.5201V40.9851H102.398C104.055 40.9851 105.396 41.2418 106.423 41.7551C107.473 42.2685 107.998 43.1201 107.998 44.3101C107.998 45.2435 107.671 45.9551 107.018 46.4451ZM121.848 48.1951C123.412 48.9418 125.22 49.3151 127.273 49.3151C129.35 49.3151 131.17 48.9301 132.733 48.1601C134.32 47.3901 135.545 46.3168 136.408 44.9401C137.272 43.5401 137.703 41.9418 137.703 40.1451C137.703 38.3485 137.272 36.7851 136.408 35.4551C135.568 34.1018 134.367 33.0635 132.803 32.3401C131.24 31.6168 129.443 31.2551 127.413 31.2551C125.337 31.2551 123.505 31.6285 121.918 32.3751C120.355 33.1218 119.142 34.1835 118.278 35.5601C117.415 36.9135 116.983 38.4885 116.983 40.2851C116.983 42.1051 117.403 43.6918 118.243 45.0451C119.107 46.3985 120.308 47.4485 121.848 48.1951ZM131.718 45.6051C130.762 46.8185 129.432 47.4251 127.728 47.4251C126.515 47.4251 125.43 47.0985 124.473 46.4451C123.54 45.7918 122.805 44.8818 122.268 43.7151C121.755 42.5485 121.498 41.2185 121.498 39.7251C121.498 37.6718 121.977 36.0618 122.933 34.8951C123.89 33.7051 125.208 33.1101 126.888 33.1101C128.125 33.1101 129.21 33.4251 130.143 34.0551C131.1 34.6851 131.847 35.5718 132.383 36.7151C132.92 37.8585 133.188 39.1768 133.188 40.6701C133.188 42.7468 132.698 44.3918 131.718 45.6051ZM158.743 44.5551C158.323 44.1351 157.635 43.8551 156.678 43.7151C156.375 44.6018 156.037 45.2901 155.663 45.7801C155.313 46.2468 154.812 46.5968 154.159 46.8301C153.505 47.0635 152.607 47.1801 151.463 47.1801H151.148C150.425 47.1801 149.877 47.0985 149.503 46.9351C149.13 46.7485 148.873 46.4568 148.733 46.0601C148.593 45.6401 148.523 45.0335 148.523 44.2401V41.2651H149.888C150.962 41.2651 151.697 41.3935 152.093 41.6501C152.513 41.9068 152.747 42.3851 152.793 43.0851C153.237 43.2485 153.867 43.3301 154.683 43.3301C154.614 42.5601 154.578 41.5451 154.578 40.2851C154.578 39.1418 154.614 38.1501 154.683 37.3101C153.937 37.3101 153.284 37.4035 152.724 37.5901C152.724 38.2901 152.513 38.7801 152.093 39.0601C151.697 39.3168 150.962 39.4451 149.888 39.4451H148.523V33.3201H150.868C152.549 33.3201 153.715 33.5768 154.368 34.0901C155.045 34.6035 155.453 35.3618 155.593 36.3651C156.317 36.3651 157.005 36.2135 157.659 35.9101C157.379 34.9768 157.157 33.4835 156.993 31.4301C155.267 31.4768 152.432 31.5001 148.489 31.5001C146.155 31.5001 144.008 31.4768 142.049 31.4301C142.049 32.2468 142.107 32.8768 142.224 33.3201C142.807 33.3901 143.239 33.4951 143.519 33.6351C143.822 33.7751 144.032 34.0318 144.148 34.4051C144.265 34.7551 144.323 35.3035 144.323 36.0501V44.3451C144.323 45.1385 144.265 45.7218 144.148 46.0951C144.032 46.4685 143.833 46.7368 143.553 46.9001C143.273 47.0401 142.842 47.1335 142.258 47.1801C142.118 47.5535 142.049 48.1835 142.049 49.0701C144.055 49.0235 146.913 49.0001 150.623 49.0001L157.799 49.0351C158.008 47.1451 158.323 45.6518 158.743 44.5551ZM182.012 37.3452C181.195 38.1618 180.145 38.5702 178.862 38.5702C178.232 38.5702 177.718 38.5118 177.322 38.3952C177.182 38.7452 177.112 39.1068 177.112 39.4802C177.112 39.6435 177.135 39.8652 177.182 40.1452C177.835 40.4018 178.652 40.5302 179.632 40.5302C181.358 40.5302 182.84 40.1568 184.077 39.4102C185.313 38.6402 186.247 37.6252 186.877 36.3652C187.507 35.0818 187.822 33.6935 187.822 32.2002C187.822 30.1235 187.157 28.4552 185.827 27.1952C184.52 25.9118 182.408 25.2702 179.492 25.2702C178.652 25.2702 177.928 25.2818 177.322 25.3052L174.347 25.3401C172.293 25.3401 170.625 25.3051 169.342 25.2351C169.342 25.9818 169.412 26.6001 169.552 27.0901C170.205 27.1368 170.695 27.2535 171.022 27.4401C171.348 27.6268 171.582 27.9418 171.722 28.3852C171.862 28.8285 171.932 29.4818 171.932 30.3451V43.9602C171.932 44.8468 171.862 45.5118 171.722 45.9552C171.582 46.3985 171.337 46.7135 170.987 46.9002C170.66 47.0868 170.17 47.2035 169.517 47.2502C169.4 47.6235 169.342 48.2418 169.342 49.1052C170.438 49.0352 172.223 49.0002 174.697 49.0002C176.937 49.0002 178.628 49.0352 179.772 49.1052C179.772 48.2652 179.702 47.6468 179.562 47.2502C178.722 47.2035 178.068 47.0752 177.602 46.8652C177.135 46.6318 176.785 46.2468 176.552 45.7102C176.342 45.1502 176.237 44.3685 176.237 43.3652V27.3702C176.82 27.2302 177.38 27.1602 177.917 27.1602C179.737 27.1602 181.078 27.6968 181.942 28.7702C182.828 29.8435 183.272 31.3252 183.272 33.2152C183.272 35.1518 182.852 36.5285 182.012 37.3452ZM208.167 44.5552C207.747 44.1352 207.059 43.8552 206.102 43.7152C205.799 44.6018 205.461 45.2902 205.087 45.7802C204.737 46.2468 204.236 46.5968 203.582 46.8302C202.929 47.0635 202.031 47.1802 200.887 47.1802H200.572C199.849 47.1802 199.301 47.0985 198.927 46.9352C198.554 46.7485 198.297 46.4568 198.157 46.0602C198.017 45.6402 197.947 45.0335 197.947 44.2402V41.2652H199.312C200.386 41.2652 201.121 41.3935 201.517 41.6502C201.937 41.9068 202.171 42.3852 202.217 43.0852C202.661 43.2485 203.291 43.3302 204.107 43.3302C204.037 42.5602 204.002 41.5452 204.002 40.2852C204.002 39.1418 204.037 38.1502 204.107 37.3102C203.361 37.3102 202.707 37.4035 202.147 37.5902C202.147 38.2902 201.937 38.7802 201.517 39.0602C201.121 39.3168 200.386 39.4452 199.312 39.4452H197.947V33.3202H200.292C201.972 33.3202 203.139 33.5768 203.792 34.0902C204.469 34.6035 204.877 35.3618 205.017 36.3652C205.741 36.3652 206.429 36.2135 207.082 35.9102C206.802 34.9768 206.581 33.4835 206.417 31.4302C204.691 31.4768 201.856 31.5002 197.912 31.5002C195.579 31.5002 193.432 31.4768 191.472 31.4302C191.472 32.2468 191.531 32.8768 191.647 33.3202C192.231 33.3902 192.662 33.4952 192.942 33.6352C193.246 33.7752 193.456 34.0318 193.572 34.4052C193.689 34.7552 193.747 35.3035 193.747 36.0502V44.3452C193.747 45.1385 193.689 45.7218 193.572 46.0952C193.456 46.4685 193.257 46.7368 192.977 46.9002C192.697 47.0402 192.266 47.1335 191.682 47.1802C191.542 47.5535 191.472 48.1835 191.472 49.0702C193.479 49.0235 196.337 49.0002 200.047 49.0002L207.222 49.0352C207.432 47.1452 207.747 45.6518 208.167 44.5552ZM226.004 40.9152C225.047 40.1918 223.659 39.7485 221.839 39.5852C223.379 39.3985 224.569 38.9435 225.409 38.2202C226.272 37.4968 226.704 36.5635 226.704 35.4202C226.704 34.0435 226.085 33.0052 224.849 32.3052C223.635 31.6052 221.862 31.2552 219.529 31.2552C217.079 31.2552 214.979 31.6518 213.229 32.4452C213.299 33.0285 213.334 33.6352 213.334 34.2652C213.334 34.9185 213.299 35.5835 213.229 36.2602C213.859 36.5402 214.5 36.6802 215.154 36.6802C215.41 36.6802 215.597 36.6685 215.714 36.6452C215.97 35.4085 216.32 34.5335 216.764 34.0202C217.23 33.4835 217.977 33.2152 219.004 33.2152C219.96 33.2152 220.707 33.4368 221.244 33.8802C221.78 34.3235 222.049 34.9535 222.049 35.7702C222.049 36.8202 221.617 37.6485 220.754 38.2552C219.914 38.8618 218.654 39.1652 216.974 39.1652C216.834 39.5385 216.764 39.9468 216.764 40.3902C216.764 40.5535 216.787 40.7752 216.834 41.0552C220.754 41.0552 222.714 42.1518 222.714 44.3452C222.714 45.2552 222.375 45.9785 221.699 46.5152C221.045 47.0285 220.112 47.2852 218.899 47.2852C217.709 47.2852 216.845 47.0168 216.309 46.4802C215.795 45.9435 215.422 45.0568 215.189 43.8202C214.349 43.7502 213.544 43.8785 212.774 44.2052C212.844 44.7885 212.879 45.3952 212.879 46.0252C212.879 46.7718 212.832 47.4368 212.739 48.0202C214.279 48.8368 216.32 49.2452 218.864 49.2452C221.594 49.2452 223.705 48.7902 225.199 47.8802C226.715 46.9468 227.474 45.6402 227.474 43.9602C227.474 42.6535 226.984 41.6385 226.004 40.9152ZM257.098 32.3402C255.535 31.6168 253.761 31.2552 251.778 31.2552C249.958 31.2552 248.313 31.5702 246.843 32.2002C245.396 32.8302 244.218 33.7285 243.308 34.8952C242.421 36.0618 241.885 37.4385 241.698 39.0252H238.793V36.1202C238.793 35.3735 238.851 34.8135 238.968 34.4402C239.085 34.0668 239.283 33.8102 239.563 33.6702C239.866 33.5068 240.31 33.4018 240.893 33.3552C241.01 32.9818 241.068 32.5852 241.068 32.1652V31.4302C239.435 31.4768 238 31.5002 236.763 31.5002C235.223 31.5002 233.73 31.4768 232.283 31.4302C232.283 32.1768 232.353 32.8185 232.493 33.3552C233.1 33.4252 233.531 33.5302 233.788 33.6702C234.068 33.8102 234.266 34.0668 234.383 34.4402C234.5 34.7902 234.558 35.3502 234.558 36.1202V44.3102C234.558 45.1035 234.5 45.6868 234.383 46.0602C234.266 46.4335 234.068 46.7018 233.788 46.8652C233.508 47.0052 233.076 47.0985 232.493 47.1452C232.353 47.5885 232.283 48.2302 232.283 49.0702C233.87 49.0235 235.398 49.0002 236.868 49.0002C238.221 49.0002 239.621 49.0235 241.068 49.0702C241.068 48.1602 241.01 47.5185 240.893 47.1452C240.31 47.0985 239.866 47.0052 239.563 46.8652C239.283 46.7018 239.085 46.4335 238.968 46.0602C238.851 45.6635 238.793 45.0802 238.793 44.3102V40.9852C239.54 40.8918 240.496 40.8452 241.663 40.8452C241.756 42.5018 242.223 43.9718 243.063 45.2552C243.903 46.5152 245.058 47.4952 246.528 48.1952C247.998 48.8952 249.701 49.2452 251.638 49.2452C253.668 49.2452 255.476 48.8485 257.063 48.0552C258.65 47.2618 259.875 46.1652 260.738 44.7652C261.625 43.3418 262.068 41.7552 262.068 40.0052C262.068 38.2318 261.625 36.6918 260.738 35.3852C259.875 34.0552 258.661 33.0402 257.098 32.3402ZM256.118 45.4652C255.161 46.6785 253.831 47.2852 252.128 47.2852C250.845 47.2852 249.736 46.9352 248.803 46.2352C247.893 45.5352 247.205 44.6018 246.738 43.4352C246.271 42.2452 246.038 40.9385 246.038 39.5152C246.038 37.5085 246.505 35.9452 247.438 34.8252C248.371 33.6818 249.643 33.1102 251.253 33.1102C252.443 33.1102 253.516 33.4368 254.473 34.0902C255.453 34.7435 256.211 35.6535 256.748 36.8202C257.308 37.9635 257.588 39.2585 257.588 40.7052C257.588 42.6652 257.098 44.2518 256.118 45.4652ZM293.099 49.0702C293.099 48.3235 293.041 47.7168 292.924 47.2502C292.364 47.2035 291.956 47.0985 291.699 46.9352C291.443 46.7718 291.233 46.4568 291.069 45.9902C290.929 45.5002 290.789 44.7302 290.649 43.6802L289.634 36.2252C289.588 35.8052 289.564 35.5135 289.564 35.3502C289.564 34.6035 289.728 34.0785 290.054 33.7752C290.404 33.4718 290.941 33.3202 291.664 33.3202C291.804 32.7835 291.874 32.1535 291.874 31.4302C290.708 31.4768 289.681 31.5002 288.794 31.5002C287.814 31.5002 286.741 31.4768 285.574 31.4302L279.659 43.5052L273.289 31.4302C272.309 31.4768 271.283 31.5002 270.209 31.5002C269.136 31.5002 268.086 31.4768 267.059 31.4302C267.059 32.2235 267.129 32.8535 267.269 33.3202C268.039 33.3202 268.576 33.4602 268.879 33.7402C269.183 34.0202 269.334 34.5685 269.334 35.3852C269.334 35.7118 269.323 35.9802 269.299 36.1902L268.389 42.9452C268.273 44.0652 268.121 44.9285 267.934 45.5352C267.748 46.1418 267.491 46.5735 267.164 46.8302C266.838 47.0868 266.406 47.2268 265.869 47.2502C265.729 47.6935 265.659 48.3002 265.659 49.0702C266.639 49.0235 267.771 49.0002 269.054 49.0002C270.174 49.0002 271.294 49.0235 272.414 49.0702C272.414 48.4168 272.344 47.8102 272.204 47.2502C271.458 47.2035 270.933 47.0168 270.629 46.6902C270.326 46.3402 270.174 45.6868 270.174 44.7302C270.174 44.2168 270.209 43.6102 270.279 42.9102L271.154 36.2602L277.524 48.7552C278.178 48.7785 278.784 48.7085 279.344 48.5452L285.364 36.2952L286.379 43.9952C286.473 44.8818 286.519 45.4068 286.519 45.5702C286.519 46.2002 286.379 46.6202 286.099 46.8302C285.843 47.0402 285.329 47.1802 284.559 47.2502C284.419 47.9968 284.349 48.6035 284.349 49.0702C285.609 49.0235 286.998 49.0002 288.514 49.0002C290.404 49.0002 291.933 49.0235 293.099 49.0702ZM313.919 44.5552C313.499 44.1352 312.811 43.8552 311.854 43.7152C311.551 44.6018 311.213 45.2902 310.839 45.7802C310.489 46.2468 309.988 46.5968 309.334 46.8302C308.681 47.0635 307.783 47.1802 306.639 47.1802H306.324C305.601 47.1802 305.053 47.0985 304.679 46.9352C304.306 46.7485 304.049 46.4568 303.909 46.0602C303.769 45.6402 303.699 45.0335 303.699 44.2402V41.2652H305.064C306.138 41.2652 306.873 41.3935 307.269 41.6502C307.689 41.9068 307.923 42.3852 307.969 43.0852C308.413 43.2485 309.043 43.3302 309.859 43.3302C309.789 42.5602 309.754 41.5452 309.754 40.2852C309.754 39.1418 309.789 38.1502 309.859 37.3102C309.113 37.3102 308.459 37.4035 307.899 37.5902C307.899 38.2902 307.689 38.7802 307.269 39.0602C306.873 39.3168 306.138 39.4452 305.064 39.4452H303.699V33.3202H306.044C307.724 33.3202 308.891 33.5768 309.544 34.0902C310.221 34.6035 310.629 35.3618 310.769 36.3652C311.493 36.3652 312.181 36.2135 312.834 35.9102C312.554 34.9768 312.333 33.4835 312.169 31.4302C310.443 31.4768 307.608 31.5002 303.664 31.5002C301.331 31.5002 299.184 31.4768 297.224 31.4302C297.224 32.2468 297.283 32.8768 297.399 33.3202C297.983 33.3902 298.414 33.4952 298.694 33.6352C298.998 33.7752 299.208 34.0318 299.324 34.4052C299.441 34.7552 299.499 35.3035 299.499 36.0502V44.3452C299.499 45.1385 299.441 45.7218 299.324 46.0952C299.208 46.4685 299.009 46.7368 298.729 46.9002C298.449 47.0402 298.018 47.1335 297.434 47.1802C297.294 47.5535 297.224 48.1835 297.224 49.0702C299.231 49.0235 302.089 49.0002 305.799 49.0002L312.974 49.0352C313.184 47.1452 313.499 45.6518 313.919 44.5552Z" fill="white"/>
</svg>
